<?xml version="1.0" encoding="UTF-8" standalone="no"?>
<!-- Created with Inkscape (http://www.inkscape.org/) -->
<svg xmlns:rdf="http://www.w3.org/1999/02/22-rdf-syntax-ns#" style="enable-background:new;" xmlns="http://www.w3.org/2000/svg" height="4260" width="4470" version="1.1" xmlns:cc="http://creativecommons.org/ns#" xmlns:dc="http://purl.org/dc/elements/1.1/">
 <metadata>
  <rdf:RDF>
   <cc:Work rdf:about="">
    <dc:format>image/svg+xml</dc:format>
    <dc:type rdf:resource="http://purl.org/dc/dcmitype/StillImage"/>
    <dc:title/>
   </cc:Work>
  </rdf:RDF>
 </metadata>
 <path d="m-0.0474,3800,0,43,4470,0,0-43-4470,0z" fill="#617b71"/>
 <path d="m1180,1610c1.71,5.03,4.83,8.55,10,10-1.45-5.13-5.2-7.97-10-10" fill="#4f7567"/>
 <path d="m2370,2250c5.23-5.96,10.8-16.4,19-35.5,4.36-10.2,11.5-26.6,16-36.5,30.3-68,59.9-159,76.7-236,16.6-76,20.8-119,20.9-217,0.05-34.3-0.358-57.1-1.2-67-11.6-136-58.2-268-139-392-24.7-37.8-45.7-65-50.4-65-2.91,0-9.24,6.47-24,24.5-22.7,27.8-37.4,49.7-57.6,86-32,57.5-52.5,108-65.7,161-11.7,47-15.4,80.5-16.3,146-0.938,72.6,2.58,115,14.3,174,17.7,87.9,49,177,100,286,25.7,54.5,62.4,122,84.5,156,13.2,20.2,16.4,22.4,22.3,15.5zm14.2,59.9c-13.4-12.3-25-22.4-25.7-22.4-0.69,0-2.9,1.45-4.92,3.22l-3.67,3.22,2.13-4.18c1.17-2.3,2.13-4.79,2.13-5.54,0-1.72-9.55-12.1-48-52.2-45.5-47.5-73.8-78.2-108-117-34.6-39.7-71.6-85.2-86.9-107-4.95-7.02-12.5-17.3-16.7-22.9-13.4-17.6-28-38.3-46.8-66.1-29.3-43.3-39.5-56.5-43.5-56.5-3.21,0-6.93,4.24-9.61,11-4.05,10.2-23.8,51.2-38.7,80.5-15.7,30.9-19.3,36.9-51.4,87.1-24.9,39-27,42.2-36.7,54.9-4.21,5.5-12.1,16.3-17.5,24-25.1,35.5-63.5,80-118,136-30.5,31.6-51.6,52.1-53.8,52.1-0.568,0-0.696-0.963-0.3-2.25,1.2-3.89,10.4-23.6,19-40.9,76.4-153,126-302,151-453,7.9-48.3,10.1-79.4,11.2-161,1-70.9-1.47-109-10.7-166-8.59-52.3-21.5-105-37.1-151-7.27-21.7-23.1-62.8-30.1-78-6.44-14.1-33.5-68.1-43.4-86.7-20.5-38.5-48.5-81.1-86.3-131-30.3-40.2-50.4-64.2-86.9-103-22.8-24.5-27.1-29.4-24-27.6,10.5,6.25,66.5,44.7,94.4,64.8,19.9,14.3,80.8,60.9,98,75,44,36,92.2,80.1,144,132,53.8,53.9,85.4,89.4,126,142,17.6,22.5,23.9,29.5,26.8,29.5,2.4,0,14.3-9.76,34.6-28.4,58.8-54.1,128-110,180-146,22.4-15.6,25.8-18.5,25.8-22,0-4.36-4.63-10.5-21.1-28.1-8.48-9.05-14.8-16-13.9-15.5,16,10,31.5,23.3,49.8,31.4,4.91,2.03,8.78,0.456,24.8-10.1,24.9-16.4,57.8-36.4,89.4-54.6,37.6-21.6,113-60.7,159-82,26.3-12.4,28.4-13,12.8-3.72-38.6,22.9-96.4,61.2-111,73.4-39.7,34-88.1,64-119,106-5.24,7.79-4.11,11.1,6.16,18,28.1,18.9,108,88.2,156,136,39.4,38.8,101,107,125,139,9.21,12.2,13.2,15.9,16.2,15.2,3.18-0.806,15.1-10.5,35.6-29,56.2-50.7,123-102,175-134,53.8-33.1,99.9-58.7,150-83.3,41-20.3,86.2-41.1,87.2-40.2,0.229,0.229-1.74,1.67-4.38,3.19-10.1,5.85-60.4,38.2-72.8,46.8-63,43.7-122,96.7-166,149-131,157-162,346-93.3,568,18.3,59.5,41.7,115,77.6,185,24.5,47.6,47.5,85.3,53,87.1,2.75,0.872,4.95-1.54,14.3-15.6,17.9-27,42.8-73.3,55.3-102,27.2-63.9,36.7-125,29.6-190-6.3-58.6-28.6-108-73.9-165-34.1-42.7-80.9-85.5-133-121-5.35-3.71-9.99-7.17-10.3-7.69-2.48-4.02,75.5,33.6,120,57.7,34.2,18.7,69.7,40.9,110,68.5,21.5,14.9,23.3,16.3,64.7,49,31.6,25,36.9,28.9,39.2,28.9,2.66,0,10.1-4.1,42.9-23.7,83.3-49.7,148-81.9,227-113,24.7-9.71,56.8-21.5,57.3-21,0.209,0.209-4.23,2.34-9.87,4.73-17.8,7.56-51.7,23.8-67.3,32.2-71.7,38.8-122,81-153,128-58.8,90-46,196,39.1,324,25.9,39,73.4,98.6,103,129,7.62,7.9,8.83,9.53,6.03,8.11-11.4-5.8-69-44-88.7-58.8-33.8-25.4-82.8-68.4-132-116-32.9-31.5-38.4-36-44.5-36.2-5.73-0.162-9.17,2.04-11.9,7.64-6.51,13.2-43.1,56.2-70.7,83.2-23.4,22.8-63.2,55.9-84.1,69.8-5.91,3.94-11,7.93-11.3,8.88-0.672,2.12,2.82,9.13,11.2,22.4,3.5,5.58,6.37,10.5,6.37,10.9,0,0.429-4.46-3.55-9.92-8.84s-12-10.6-14.5-11.9c-4.2-2.04-5-2.12-9.33-0.967-2.61,0.695-8.79,3.77-13.7,6.84-19.6,12.1-23.4,14.4-27,15.9-4.6,1.92-4.68,2.08,6.51-12,11.4-14.4,20-27.3,20-30,0-1.22-2.69-5.99-5.98-10.6-5.94-8.32-11.1-14.7-41.1-50-19-22.5-47.3-58.4-61.4-77.9-43-59.7-86.7-125-120-179-13.1-21.1-19.1-28-22.8-26-2.48,1.33-8.88,12.3-15.3,26.2-16.8,36.5-49.4,98.2-66.3,126-5.73,9.27-12.6,20.7-15.2,25.4-18.2,32.3-78.8,111-119,154-21.1,22.7-28.5,32.3-28.5,36.6,0.023,4.09,7.13,16.9,21.2,38.2,6.64,10.1,11.9,18.5,11.7,18.7-0.221,0.221-11.4-9.69-24.9-22zm1140-1170-19,3.1c-15.7,5.3-19,18.7-11.7,32.5,10.6,19.9,30.7,37.1,47.7,51.4,38.3,32.3,90.2,53.6,138,67.3,23.1,6.64,50.2,12,74,5.91,18-4.6,24.2-17.9,16.2-34.6-8.6-18-25-32.8-40.2-45.2-40.7-33-89.7-56.9-140-71.2-19.8-5.64-44.4-11.9-65-9.16zm-2500-47c-38.4,5.23-80.9,21.2-111,46-7.74,6.38-19.1,16-20.7,26.5-2.22,15.2,19.5,20.2,30.7,19.9,40.8-1.01,85.7-20.7,117-46.1,8.63-7.02,21.9-18.4,21.6-30.7-0.28-15.6-26.6-17.1-37.6-15.6m1010-68c-41.6,8.3-75.6,21.8-93.8,57.6-4.41,8.81-7.2,18.2-8.3,28-7.57,67.2,62.4,112,124,105,34-5.77,62.2-19.1,81-45.7,16.4-23.8,22.3-57.9,9.71-85-17.7-38.2-71.1-65-113-59.6m926,43.6c24-0.07,49-6.51,73-8.83,56.4-5.46,113-8.17,170-8.17,29.8,0,64.3-2.44,93,6.75,21.8,6.96,40.8,24.8,60,36.8l75,49.4c5.4,3.68,22.8,13.1,27.9,3.61,3.74-7.01-15.6-23.3-19.9-27.6-23.7-23.7-51.1-48.2-70-76,22.2-5.28,47.5-1.02,70-0.04,26.9,1.18,57.8-1.2,84,5.04l-15.2-26-6.46-13c-5.95-4.46-21.1-2.73-28.4-3.05l-68-1.96c-108,0-215,6.15-323,11l-72,6.79c-8.88,0.95-24-0.49-31.7,4.33-9.22,5.81-17.8,30.4-18.3,40.8m-1810-77.4c-13.4,2.61-18.9,24-20.9,35.4-6.37,36.2-3.14,74.2,8.59,109,3.65,10.8,15,39.7,30.3,36.1,12.9-2.99,19.4-23.9,21.8-35.1,7.6-35.7,2.88-74.8-8.79-109-3.99-11.7-14.7-39.6-31-36.4m2500-25.1c-35.6,4.68-69.1,7.62-102,24.3-10.1,5.14-29.5,17.1-24,31.2,8.08,20.8,39,28.6,58,34,58.5,16.7,121,15.9,181,6.87,23-3.47,48.9-11.5,68-24.9,18-12.6,18.1-29,0-41.8l-18-9.9c-37.7-17.3-80.1-20.3-121-20.3l-42,0.424m-2680-32c-42.3,5.55-84.5,10-123,30.4-13.4,7.05-34.2,19.6-32.9,37.2,1.47,19.8,26.6,27.9,41.9,33,44.2,14.7,98.3,12.3,144,6.71,34-4.12,70.6-14,100-31.9,9.89-6.02,26.7-19.4,24.8-32.8-2.14-14.9-22.4-25.1-34.8-29.9-35.7-13.8-82.1-17.6-120-12.6m226,6.58c36.5,5.36,73.8,21,109,32,53,16.5,109,31.8,158,58.3,15.3,8.25,31.4,16.6,43.9,28.9l12.5,19.6c8.23,1.24,27.9-31.2,28-34.8-0.27-5.88-9.45-13.2-13.4-17-16.4-15.7-37.9-25.4-58-35.3-62-30.7-132-49.9-199-66.6l-42-10.7c-5.77-1.27-13.3-3.68-19-0.99-7.92,3.76-16.3,18.8-20,26.6m-475-139c-38.3,5.04-75.1,7.3-111,23.9-11.4,5.25-30.8,15.9-32.8,29.7-2.46,16.9,20,26.8,32.8,31.3,36.6,12.8,83.9,12,122,7.41,30.1-3.6,62.7-10.5,89-26.2,9.48-5.64,23.2-14.3,23.9-26.5,0.766-13.7-15.2-22.4-25.9-27.1-28-12.4-67.7-16.4-98-12.4m3170-3c-47.7,6.27-89.3,13.9-131,40-8.26,5.25-15.3,11.5-21.8,18.6-7.22,10.1-3.76,19.7,6.83,25.2,13.3,6.98,29.3,7.7,44,6.7,45-3.08,95.3-16.1,133-41.7,7.64-5.19,26.9-18.6,26.4-29.3-0.29-5.44-6.34-10.1-10.4-13-12.2-8.56-32.7-8.5-47-6.62m-2430-68.4c23.1,3.4,47.2,20,67,31.8,51.7,30.8,95.5,67.1,140,107,12.8,11.6,25,25.2,35.6,38.8,5.05,6.49,10.1,16.7,18.4,19,3.6-13.2,16.5-33.2,13.7-47-1.06-5.27-6.1-9.2-9.51-13l-26.2-27c-38.9-38.9-86.8-72.2-136-96.8l-60-29.5c-5.93-2.78-17.3-10.2-24-8.85-7.61,1.55-16.5,18.4-19,25.1m-545-46.6c-25.2,3.31-70.3,2.03-82.6,30.6-4.17,9.66,1.79,18,7.92,25,13.5,15.5,33,25.3,51.7,33,63.2,26.1,140,39.5,208,26.2,15.9-3.12,48.5-9.56,53.6-28.2,6.74-24.7-31.6-43.3-48.6-51.8-41.3-20.5-88.5-29-134-33.4-18.1-1.75-37.9-3.79-56-1.41m2780-10c-66.2,8.69-131,39.9-181,84.7-14.1,12.7-30.6,28.3-36.6,46.8-5.35,16.4,4.17,30.2,21.6,31,72.3,3.28,148-37.9,201-84.2,25.2-27,49.5-62.1,25-74.8-9.82-3.41-19.8-3.23-30-3.48m-1190,143c17-4,31.6-24.5,42.4-37,17-19.7,36.7-37,57.6-52.6,64.6-48.5,139-77.8,216-100,13.5-3.92,14-19.4,15.1-31.3,0.37-3.89,2-9-0.39-12.6-4.26-6.37-20.8-0.827-26.7,0.367-26.9,5.47-54.2,12.1-80,21.8-76.1,28.4-165,70.5-206,145-11.7,21.5-12.8,42.9-18.3,66m-1290-254-12,3.46c-35.5,16.4,8.45,53.9,25,65.8,37.2,26.8,81.7,44.6,126,55.7,21.7,5.43,48,9.62,70,2.85,14.8-4.56,21.3-16.5,12.9-30.2-9.64-15.8-25.1-30-39.9-40.8-34-24.9-78.4-40.9-119-51-19.9-4.97-42.5-8.92-63-5.69m2060-17c-23.5,3.67-43.8,21.3-60,37.6-37.9,37.9-66.8,87.3-81.6,139-5.64,19.8-9.66,43-3.07,63,4.72,14.3,17,25.5,32.6,23.8,22.6-2.43,44.7-21.5,60-36.8,39.1-39,68.7-87.6,83.6-141,7.5-27,14.6-92.8-31.6-85.6m-2390-32c-12.5,2.42-20.9,15.7-15.7,27.5,7.28,16.4,25.5,30.9,39.7,41.3,37.2,27.4,83.1,45.3,128,55.2,20.8,4.59,45.3,8.18,66,1.22,15.5-5.23,19.9-17.6,11.6-31.6-9.64-16.3-25-28.7-40.6-39-46.3-30.8-103-55-159-55l-30,0.469m2670-1c-50.8,8.98-102,50-134,88.5-9.49,11.3-21.6,26.5-21.8,42-0.09,8.6,2.34,16.9,12,18.7,22.5,1.31,45.7-7.98,63-17.4,33.6-18.4,64.6-43.8,88.9-73.3,8.26-10,18.9-23.5,20-37,0.9-11.2-4.7-21.4-16.9-22l-11,0.424m-1980-25.4c-4.9,2.5-22.4,20.2-18.4,26.4l13.9,6.82,35,20.2c36,22.3,69.1,46.5,99,76.6l33.6,39c3.36,4.07,8.29,12,14.4,9.14,9.78-4.62,18.6-14,27-20.7,2.59-2.07,7.52-4.8,7.98-8.44-3.3-12.8-23.6-31.2-32-38.5-36.5-31.7-76.1-55.9-118-79.8l-46-24.8c-4.04-2.02-12-8.04-16.6-5.68m838-8.07,9.83,43c3.98,41-0.52,82.1-10.5,122l-15.7,54c-1.47,4.38-8.04,15.2-5.55,19.6,2,3.48,9.43,3.26,12.9,3.43l37,2-1-187-1-41c0-3.62,1.59-12.3-1.6-14.8-4.51-3.57-18.9-1.86-24.4-1.18m653-124c-22.8,3.27-44.1,15-63,27.6-36.5,24.3-70.3,56.2-93,94-12.4,20.5-35.6,74.1,3,82.3l19,0.58c18.9-1.32,38.1-11.8,54-21.3,41.3-24.8,78.6-61.4,102-104,12.1-21.7,33.4-73.9-7.14-79.7l-15,0.128m252-5.99c-51,7.97-102,50.3-134,88.6-10.6,12.7-40.3,53.2-9.75,60.8l9,1.19c14.2-0.272,28.2-6.05,41-11.5,37.9-16.2,74.4-45.6,100-77.4,9.09-11.2,19.7-24.4,22.3-39,2.07-11.5-4.32-21.9-16.5-22.9l-12,0.346m-2250-10-13,3.47c-33.6,15.5,5.82,55.9,21,70,30.8,28.7,69.7,49,110,60.5,18,5.13,38.5,9.18,57,4.68,40.2-9.79,6.24-54.5-11-69.8-32-28.4-69.7-50.7-111-62.4-16.8-4.79-35.4-8.96-53-6.43m212-17c-17.2,2.71-27.6,19.2-22.3,35.6,7.29,22.4,26,39.8,42.3,56,35.5,35.1,85.4,59.3,133,73,22.8,6.58,50.6,10.6,74,4.52,16.6-4.32,23.2-19.6,19.1-35.5-5.46-20.8-23.5-39-39.1-52.7-52.7-46.4-134-92.4-207-80.8m1640-115c-49.3,7.06-99,54.5-124,95.6-9.73,16.1-28,59.6,1.8,66.5l15,0.439c15.4-1.13,31.2-9.83,44-17.9,32-20,61.8-49.2,80.7-82,10.3-17.8,26.1-56.8-5.72-62.5l-12-0.037m-903-33c-16,2.85-28,14.5-39,25.5-28.6,28.7-49.8,72.2-56.8,112-3.21,18.5-8.2,69,22.8,65.8,17.8-1.82,34.5-16.9,45.6-29.8,26.1-30.4,46.3-71.2,53-111,3.09-18.3,5.99-68.2-25.6-62.5m254-18c-41,3.81-30.8,65-23.3,91.5,16.7,58.8,51.3,113,94.3,156,17.7,17.6,43.2,39.1,70,35.8,12.9-1.57,20.7-13.2,23.8-24.8,5.89-22,1.09-46.4-4.47-68-15.1-58.5-50.8-113-93.4-155-16-15.8-42.7-37.8-67-35.5m-466,170c3.53-16.2-14.2-39.6-22-53-28.7-48.8-74.7-96-127-119l-21-6.86-15-1.48c-35.2,3.32-22.3,53.4-14,73.5,5.61,13.5,12.8,26.6,20.6,39,12.8,20.5,28.1,39.3,44.5,57,22.4,24.1,50.4,47.5,80.9,60.6,15.2,6.49,34.1,12.9,49,2.21,11.9-8.54,18.4-42.6,4.04-51.8m854-184c-24.6,3.87-44.7,26.1-59.4,44.6-37.2,46.8-62,109-68.4,168-2.53,23.5-3.88,52.3,9.53,73,6.49,10,16.6,19.2,29.3,17.8,24.5-2.59,45-25,59.6-42.8,38.3-46.8,65.9-110,70.3-171,2.1-28.6,4.93-96.8-40.9-89.6m151-30c-11.2,1.95-20.4,11.8-26.8,20.5-15.2,20.6-25.6,45.7-29.6,71-1.93,12.4-3.18,41.6,16.4,39.7,10.8-1.06,19.2-11,25.7-18.7,17.9-21.1,28-47.8,31.6-75,1.55-11.9,1.8-40.9-17.3-37.5m-684-22.8c-14.1,4.22-18.2,21.7-20.2,34.4-5.18,31.9-1.06,68.2,11.7,98,5.24,12.3,17.5,36.5,34.6,31.2,13.3-4.1,17.6-22.2,19.6-34.2,5.43-32.3,2.78-68.2-11.3-98-5.39-11.4-18.3-36.1-34.2-31.4m-785-13.2-15,3.45c-31.3,13.4-2.4,56.2,10.6,73.1,29.6,38.4,69.2,71.1,113,91.2,15.2,6.93,37,16.4,54,13.3,43.2-7.77,17.3-54.7,0.87-76.5-28.5-38-69.2-72.5-113-91.9-15.2-6.73-33.9-15-51-12.7m1020-50c-27.4,4.95-12.4,45.1-3.57,60.5,19.2,33.5,48.1,65.9,82.6,84.2,12,6.36,28,14.3,42,11.3,30.4-6.63,9.93-48.6,1.74-64.5-16.6-32.1-44.9-60-75.7-78.4-13.9-8.27-30.4-16.1-47-13.1m-543-25.9c-16.3,3.88-23.1,26.2-26.4,40.5-9.15,39.9-4.57,82.9,9.67,121,5.16,13.8,21.1,43.8,39.7,39.6,15-3.36,23.2-26.5,26-39.6,8.49-39.2,6.74-86.9-9.14-124-6.59-15.4-19.4-42.3-39.8-37.5m-352,1670c-8.39,1.32-16,4.83-23,9.59-13.1,8.94-25.1,22.6-26.8,39-3.8,35.9,37.8,62.6,69.8,57.6,8.82-1.38,16.6-4.56,24-9.59,7.7-5.25,15-11.8,19.7-20,23.4-41-22.9-83-63.7-76.6zm1640-9.02c-27.8,3.69-56.9,18.8-57,50.6-0.03,6.02,0.28,11.7,3.56,17,17.3,27.8,50.7,32.9,80.4,28.7,29.3-4.16,62.8-35.8,44.5-66.7-13.6-23-46-33-71.5-29.6m-1900-44.4c3.81,8.18,11.8,14.5,17.9,21l35,39c30.3,35.3,57.5,73.6,78.9,115,61.6,119,63.1,260,20.3,386-12.4,36.4-27.4,72.3-43.8,107l-25.2,49c15.4-6.86,30.1-25.2,42-37,33.5-33.4,63.4-70.4,87.8-111l28-51c1.94-3.88,6-15.5,10.9-16.2,4.91-0.75,11.9,12.8,14.3,16.2l38.6,51c36.6,46.9,78.4,89,120,131l38,37.4c5.17,4.5,9.49,10.1,16,12.6-3.25-13.7-20.1-29-28-41-19.2-29.2-36.7-60-52.7-91-58.9-114-94-251-39.4-374,9.95-22.3,23-43.6,37.8-63,27.5-36,60.7-68.1,97.4-94.8l42-28.5c7.68-4.93,17.4-9.39,23-16.7-20.5,3.53-42.4,19.5-61,28.8-53.5,26.8-107,57.7-154,95l-57,46.2c-4.31,3.82-14.7,16.2-21,15.2-7.23-1.17-14.8-14-19.3-19.3l-45.7-48c-45.4-45.4-92.6-88.1-146-124-16.2-10.9-35.8-30.6-55-35m-264-3.53c-27.1,5.13-11.2,35.4,0.089,47.5,21.6,23.2,51.9,44.4,82.9,52.4,9.43,2.42,21.4,6.13,31,3.58,29.9-7.93,9.83-38.1-3.09-52-24.7-26.5-72.2-58.8-111-51.5m2690-36c-19.1,2.52-37.6,3.23-55,12.9-7.77,4.31-16.3,11.9-14.7,21.7,1.87,11.1,14.4,17.1,23.7,21.1,24.5,10.5,53.9,11.1,80,7.59,15.1-2.03,59-13.3,47.3-36.7-3.71-7.42-11.2-11.7-18.3-15.2-17.9-8.81-43.1-14-63-11.3m-2600-96.8c-19.7,6.25-13.6,39.2-9.58,53.4,9.98,35,32.7,66.8,60.6,89.8,10.9,9.02,26.8,21.2,42,16,21.9-7.53,15.4-37.4,10-53.8-11.3-34.2-32.3-68.3-61-90.6-10.5-8.16-27.8-19.3-42-14.8m2630-69.2c-49.4,7.08-97.2,32-132,67.6-10.8,11-26.4,31.6-17.6,48,6.79,12.6,30.1,14.1,42.6,12.9,50.1-4.77,100-29.2,136-64.8,9.69-9.69,22.8-23.4,23.9-38,2.05-26.7-34.6-28.2-52.9-25.6m-1000-186c-12.3,1.76-22.9,6.2-33,13.3-17.3,12.2-32.6,31.5-34.8,53.3-4.69,46.9,44.6,89.8,90.8,82.9,13.7-2.06,28.6-5.62,40-13.6,10.5-7.33,20.4-16.4,27.2-27.3,20.2-32.4,5.83-75.9-25.2-95.9-18.7-12.1-43.1-15.8-65-12.7" fill="#5e786e"/>
 <path d="m3120,2810c16-2.84,37.8-6.72,48.5-8.63,30.6-5.46,32.9-6.67,31.6-16.7-1.7-13.1-15.7-69.7-22.6-91.1-3.29-10.3-4.86-12.6-8.37-12.6-3.05,0-5.85,3.28-15.9,18.6-4.72,7.2-16.8,24.5-26.8,38.5-47.2,65.7-47.9,66.8-47.9,72.7,0,6.63,0.361,6.62,41.5-0.693zm148,188c-17.8-8.23-34.7-46.4-52-118-3.08-12.6-5.82-23.8-6.1-24.7-0.818-2.84-3.33-4.76-6.23-4.76-3.34,0-122,20.1-139,23.6-6.82,1.38-14.6,3.46-17.3,4.63l-4.93,2.12-12.1,24.1c-27.4,54.8-38.8,74.7-48.3,84.3-7.39,7.43-11.3,8.8-23,8.06-14.7-0.943-26.4-7.65-30.1-17.3-2.42-6.33-1.44-16.5,2.67-27.9,1.78-4.95,10.2-22.7,18.7-39.5,8.51-16.8,16.3-32.9,17.3-35.9,1.45-4.2,1.88-8.34,1.9-18.5,0.031-18.7,2.06-22.3,17.8-31.5,11.5-6.7,18.6-15.5,49.7-61.6,52.5-77.7,89.2-128,117-159,16.4-18.7,24-23.8,34.9-23.8,7.16,0,12.6,2.23,19,7.72,9.84,8.5,12.9,16.7,22.5,60.4,11.3,51.5,18.3,81.5,29,124,21.7,87.2,34.6,131,48.4,167,8.05,20.8,9.77,32.2,6.08,40.4-2.81,6.2-10.6,13.6-16.5,15.6-7.03,2.39-23.6,2.27-29-0.223zm-1310-210c48.5-2.34,69.8-5.24,92.4-12.6,21.5-6.99,35.6-15.2,50.2-29.3,15.1-14.6,18.4-21.6,15.8-33.8-4.7-22.5-20.6-41.7-51-61.8-34.5-22.7-71.3-33.8-119-35.7-19.8-0.791-19.3-1.1-17.1,10.6,5.9,31.1,3.37,94-6.08,151-0.882,5.34-1.34,10.4-1.01,11.2,0.717,1.87-1.65,1.86,35.8,0.059zm-75.6,191c-14.3-5.08-16.3-13.4-19.7-80-0.645-12.6-1.18-38.3-1.19-57-0.018-37.5,0.788-48.3,6.98-93,4.51-32.5,5.22-55.1,3.25-102-2.56-61.6-2.05-68,6.26-77.4,6.62-7.52,11.7-9.89,22.1-10.4,28.1-1.34,103,6.39,125,12.9,40.3,11.9,98.6,48.7,122,77.2,28.6,34.3,35.8,79.7,17.5,110-5.77,9.59-23.8,26.9-37.7,36.1-19,12.6-40.5,23-64.1,30.9-6,2.01-11.5,4.12-12.2,4.7-0.695,0.576-1.26,2.53-1.26,4.35,0,4.86,5.62,9.13,24.5,18.6,29.5,14.8,52.2,29.3,87.5,55.7,29,21.7,39.9,35.6,36.8,46.8-1.29,4.68-9.04,12.9-15,15.9-5.68,2.88-11.1,3.05-17.6,0.571-6.08-2.31-12.5-6.68-33.7-23.1-57-44.1-115-74.4-186-96.7-19-6-27.4-7.99-29.8-7.08-3.31,1.27-3.99,8.15-3.37,33.7,0.33,13.5,1.11,32.1,1.74,41.5,0.625,9.33,0.951,23.1,0.725,30.5-0.454,15-2.02,19.9-7.53,23.8-6.85,4.86-18,6.46-25.7,3.71zm-1120,690c-63.2-6.07-127-37-162-91.3-22.4-32.1-27.1-72.5-22.3-111,8.78-97.3,78.9-185,169-220,43.2-15.6,90.2-11.4,135-10.3,51.3,4.29,106,23.3,136,67.8,31,47.9,30.8,109,21.5,163-19.2,90.2-87.5,173-178,197-32.5,6.73-66.1,6.17-99.1,4.66zm73.6-50.7c40.9-5.68,78.8-28.6,104-60.9,24.2-29.9,40.7-66.2,48.1-104,7.99-62.1-6.8-141-69.8-156-96.5-24.8-193,10.8-242,89.4-26.6,45.6-40.1,109-23.1,154,34,67.1,123,80.4,183,76.7zm2500-327c-6.07,25.2-5.91,52.3-7.04,78l-0.96,135,1,53c0,8.33,1.03,17.9-1.43,26-2.47,8.12-20.6,7.47-27.6,8.11-25.8,2.41-74-1.77-74,33.9l1.48,12c9.56,24.1,44.5,17.5,64.5,17l148-7.99h53c7.23,0,17.2,1.75,24-1.01,19.9-8.09,21-48.6,3.91-59.8-5.05-3.32-12.2-2.15-17.9-2.15h-103l1-199,2.91-58c0.51-7.39-0.94-19.4,3.1-25.8,4.34-6.99,27.8-1.08,35-0.32l20,2.08c24.7,1.73,79.2,12.3,81.9-24.9l-0.37-12c-5.15-28.6-45.6-27.7-68.5-29-63.1-3.52-126-8.6-189-7.05-22.4,0.54-56.2-3.31-65.4,23-5.45,15.4,2.7,34,18.4,39.2,19,6.32,42.4,2.65,62,1.79,11.3-0.5,24,0.59,35-2.04zm-742-65.6c-22.5,2.4-31,26.8-30.2,46.5-2.78,41.3-3.6,82.8-5.52,124-4.96,59.6-12.7,124-51.3,172-18.5,24.1-49.1,37.2-79.3,33.4-39,0.717-77.9-17.7-99.3-50.9-26-36.1-27.7-82-26.4-125-0.971-54.1-1.91-108-4.36-162-1.19-11.1,0-24.8-12.1-30.7-19.9-12.5-49.8-0.67-53.1,23.4-12.7,75.1-6.28,152-0.922,227,4.25,51.5,22.1,106,66.2,137,57.9,41.2,135,45.9,202,28.1,59.4-19.6,95.5-77.7,113-135,22.7-72.3,18.1-149,20.1-224-1.48-21.2,1.5-48.5-18.6-61.9-6.13-3.66-13.6-4.39-20.5-3.25zm1150,66.6c11.2,89,14,180,18,270,1.32,30.1-13.8,79.7,28,86.7l14-0.13c37.7-6.79,30-53.4,30-80.5,0-92.5-16-185-16-277l81,3.96,64,2.46c16.7,2.19,44.5,7.05,52-12.4h2l20.1,27,45.8,61c24.5,35.5,43.2,73.7,71,107,8.77,10.5,17.8,23.1,29.1,31-17.6,24.2-32.1,52-47,78-7.14,12.4-18.1,26.7-20.5,41-4.86,28.9,35.7,41.6,56.5,29.6,11.6-6.64,17.7-19.7,24.4-30.6l37.6-59c44.2-70.5,79-147,116-221l24.4-45c8.97-13.9,20.6-29.1,23-46,4.93-34.2-45.1-46.3-64.2-23-33.3,40.5-56.4,93.4-79.7,140-11.3,22.6-27.8,46.7-34.8,71h-2l-27.6-37c-27-43.3-53.3-85.2-84.1-126l-30-38c-5.75-7.01-11.8-15.4-20.4-19-9.06-3.85-22.9-4.56-32-0.76l-17,9.01c-6.91,1.99-15.9,1.06-23,0.75-70.2-3.07-141-6.96-211-6.96l-142-4c-20.8-0.01-42.5-4.65-50.4,21-7.17,23.2,13.9,35.9,33.4,39.8,43,8.56,87.3,7.2,131,7.2m-1830,237c-20.4-58.4-35.8-118-48.7-179-8.76-33.2-13.4-67.7-25.7-99.8-8.51-27.9-47.1-37.2-67.3-16.5-28.8,29.1-32.4,72.6-42.9,110-8.76,43.8-20.8,86.8-34.9,129-15.4,50.8-35.7,101-36.4,155-4.82,32.4,41.7,47.6,62.6,26.1,18.3-20.5,20.1-50.1,26.3-75.8,10.4-54.7,28.2-108,42.4-161,5.61-7.92,5.13-50.1,9.29-25.1,18.5,80.2,40.9,160,69.4,237,6.81,20.6,28.3,35.3,49.9,27.8,31-4.42,39.8-39.4,50.3-63.8,26.9-67.4,51.9-136,80.4-202,6.47-9.03,5.66,14.2,8.72,20.3,14.9,65.4,27.8,131,44.7,196,8.4,22.4,13,54.4,39.9,61.7,27.5,9.49,61-15.3,47-45.1-21.9-76.3-49.7-151-62.6-230-7.88-41.2-13.4-82.9-23.1-124-6.08-23.7-20.2-54.4-49.1-53.2-31.1,0.673-44.1,34.1-50.8,59.5-20.5,82.2-49.7,162-84.8,239-1.71,4.5-3.28,9.05-4.61,13.7zm-588-1c-6.86-39.5-26.1-75.7-33-115-12.6-51.8-23.4-104-37.7-156-5.69-28.4-40.7-45-64.9-27.9-28.9,23.2-33.9,62.4-42.9,96.2-11.4,45.1-20.2,90.9-36,135-17.6,56-39.6,112-39.9,171-3.09,26.4,30.9,39,51.8,28.9,24.6-9.95,27-40.3,32.9-62.6,9.04-56.9,27.9-112,42.5-167,5.54-12.9,9.08-42.5,11.6-45.8,12.6,62.8,33.4,124,51,185,9.85,29.8,13.6,67,42.8,85.1,28.5,11.2,57.5-11.5,66.7-37.9,35.1-75.4,61.3-155,93.3-231,10.4,28.9,12.8,59.9,20.8,89.5,11.9,53.2,25,106,39.8,159,5.76,28.7,38.8,44.3,64.9,31.1,25.2-13.4,11.9-45.2,5.86-66.4-22-68.9-43.9-138-56.1-209-10.5-46.7-11.3-95.8-29.6-140-7.75-23.8-35.9-41-59.6-28.3-28.4,16.9-32,53.3-40.2,82.2-20.8,75.7-49,149-80.7,221zm1460-187c29.4,38.6,64.9,73.6,97.9,109,48.9,52.5,99.7,104,154,151l17,14.7c22.9,19.7,61.2,56.7,94,36.4,10.3-6.38,13.4-18.3,15.2-29.5,3.88-23.5,4.75-48.2,4.75-72l1-176c0-43.5,0.02-91-20-131-4.39-8.78-10.4-17.1-19-22.1-16.8-9.66-46.3-6.67-53.2,14.1-9.02,27.1,8.33,61.2,12.8,88,5.27,31.4,5.06,63.3,6.45,95,2.11,48.3,3.96,96.6,3.96,145-95.4-76.9-181-165-259-259-20.2-24.2-38.8-49.7-61.1-72-9.85-9.85-21.9-21.2-37-19.8l-15,4.04c-36.6,14.8-23.2,54.4-23,85.8l4.96,106c1.85,42.2,0.06,84.9-0.97,127l-2.08,63c-1.09,15.9-3.73,36.8,2.57,52,9.67,23.3,49.3,18.9,61.9,2,17.2-23.2,11.6-59.9,11.6-87l-1-87,3-138m-2290-224c-14.9,5.91-28.5,17.3-45.5,11.9-54.8-5.79-113,2.16-159,34-55.6,37.5-102,87.6-140,142-31.7,47-55.4,102-53,160-2.06,34.9,4.21,71.1,25.3,99.8,36,57,103,89.7,170,89.6,80.5,1.5,159-30.4,222-78.6,18.4-11.8,25.6-38,11.4-55.7-14.2-21.1-43.1-21.6-63.5-10.2-32.6,17.1-62.3,39.8-97.5,52.1-45.5,18.9-102,20.6-142-12.3-33.8-24.7-47.2-69.7-37.2-110,15-65.4,57.2-120,103-168,37.4-36.4,84.9-71.6,140-66.4,31.5-0.283,36,38,59.4,51,25.6,14.4,65.5-1.08,65.6-33.2-0.083-28.6,1-58.5-8.71-85.8-7.01-21.3-30.6-24.2-49.6-20.5zm1110-492c-6.76,78.5-9.46,157-7.33,236-0.542,18,2.53,36.1-0.389,53.8-16.2,16.1-44.3,7.17-65.3,12.5-18.5,0.523-36.2,16.1-33.9,35.5,2.32,22,26.6,30.9,46.1,28.7,73.6-4.67,147-9.92,221-8.29,17.2,0.647,34.8-11.3,35.3-29.5,2.66-18.2-10.9-39.4-31.2-35.8-33,2.02-66.1,0.685-99.1,1.07,0.568-85.7,0.615-171,1.54-257,1.85-14.7-1.65-39.9,19.5-30.2,35.5,0.891,72.5,14,107,0.375,23.6-12.6,15.4-54.5-11.6-56.8-32.6-7.03-66.2-6.46-99.2-10.1-48.7-3.3-97.5-3.01-146-4.05-18.6,0.511-43.2,4.65-48.1,26.2-6.94,22.3,14,42,35.6,40.3,25.4-0.276,50.9-1.86,76.3-2.62zm-537-62.5c-26.3,5.67-27.4,37.6-29,59.2-3.12,57.3-2.91,115-0.679,172,3.49,56.6,16.1,118,61.4,157,51.3,43.3,124,51,188,39,51.4-11.8,93.2-51.2,113-99.5,27.8-65.2,32.8-137,34.2-207-0.906-27.2,2.07-54.2,1.42-81.3,1.45-18.9-11.6-38.5-31.4-39.6-24.2-4.05-39.7,20-40.6,41.4-3.36,45.4,0.53,91.2-3.47,137-4.66,60.2-16.7,124-57.3,171-30,33.6-82.4,34.1-121,16.9-40.4-17.6-63.9-59.7-69.3-102-6.99-50.1-2.98-101-4.97-151-0.811-29.2-0.506-58.5-2.4-87.6-2.47-17.5-20.9-29-37.8-25.2zm2410,282c64.9,49.5,119,117,198,145,19.6,7.41,48.8,9.75,59.3-12.8,12.9-25.9-16.1-45.6-37.7-51.8-40.5-17.8-72.9-49.3-107-76.9-19.7-17.4-41.1-33.2-59.6-51.8-4.12-12.6,13.6-17.6,20.3-26.1,41-34.8,78.2-73.6,117-111,19.5-20,43.7-38.7,51.4-66.8,3.54-29.7-41.8-44.9-60.2-23.5-46.4,42.9-90.8,87.9-136,132-15.4,14.6-31.2,28.7-47.8,42.1,2.12-50.7,4.69-101,6.66-152,2.06-17.9-9.67-35.2-28-37.1-16.9-3.72-42.9,1.14-44.4,22.3-1.02,109-4.68,217-6.08,326,1,28-0.718,56.2,3.06,83.9,7.37,21.8,37.5,33.7,57.8,23,16.8-13,8.17-36.4,10.1-54.5,0.948-36.8,1.9-73.6,2.84-110zm387-105c1.19-33.2,3.15-66.4,3.86-99.5-5.08-19,1.74-39.8,25-36.2,54.9-7.54,111-9.93,166-1.04,18.5,1.31,37.2,7.63,55.5,3.05,20.6-8.82,28-41.5,5.9-53.4-26.3-15.4-58.1-14.5-87.6-18-59.7-4.43-119,4.7-178,11.8-19.6-2.03-50.9-12-58.5,14.3-5.38,21.4,1.8,43.3,0.456,65,0.569,27.3,1.4,54.6-1.54,81.9-4.65,56-6.67,112-5.69,168-0.028,37.5-1.05,81.1,27.6,109,27.5,21.2,64.3,21.8,97.6,24.1,46.7,1.15,93.4-2.8,140-1.62,19.1-0.218,44.7-5.61,48.7-27.9,7.41-23.5-14.3-43.2-37.4-38.2-58.9,1.06-118,3.84-177,4.51-26.5,2.04-31.3-27.1-30.4-47.3-1.54-29.6-3.12-59.6,1.27-88.9,6.84-8.27,19.6-4.57,29.2-6.88,63.1-6.26,126-11.4,190-16.5,27.3,0.731,41.8-33.9,22.5-53-22.2-18.6-53.1-8.42-79.2-7.21-52.6,4.64-105,8.91-158,13.2zm-3190,97c-14.8-28-19.6-60-29.4-90-22.3-82.2-35.8-167-59.2-249-4.41-33.1-37-63.3-70.8-47.8-38.8,18.1-46.2,65.4-56.9,102-21.4,87.2-40.6,175-70.7,260-16.7,53.3-33.1,109-28.1,165,10.6,39.3,77,39.2,86.1-1.4,13-39.4,18.3-80.8,30.2-121,16.1-66,36.7-131,52.4-197,0.756-26.9,4.08,0,7.09,11.1,21.5,98.1,48.3,195,80.9,290,9.11,34.1,52.7,50.2,80.6,28,33.9-28.1,43.6-73.9,61-112,29.4-75.7,54.5-153,85.8-228,9.08,29.2,12.4,60.1,19.2,90,16,76.8,32,154,53.7,229,7.61,27.8,34.4,54.2,65.1,44.3,32.2-4.18,36.4-42.4,27-67.5-38.8-121-72.6-245-87.7-372-7.94-40.2-12.1-84.9-39.6-117-23-25.7-68.1-12.9-80.3,17.6-21.2,45.5-26.6,96.3-43.1,143-24.9,74.6-54,148-83.3,221zm1900,101c1.32-72.4,12.6-144,14-217,3.25-84,3.54-168,2.61-252-5.65-39.1-74.4-42.9-82.4-3.28-5.57,34.8-3.22,70.3-4.31,105-1.42,122-10.7,244-15.7,365-4.13,28.3,3.63,64.2,34.4,73.8,32.2,9.45,66.1,3.38,99.1,3.93,78-3.93,156-16.3,231-39.1,21.4-6.26,42.3-26,36-50.2-4-26.1-33.8-36.2-56.8-29.8-84.3,22-170,42.8-258,42.8z" fill="#324889"/>
 <path d="m3800,4130c5.6-2.8,23.9-16.3,36.1-26.6,25.6-21.7,66.8-68.1,74.9-84.3,4.6-9.2,2.16-17.6-5.13-17.6-9.46,0-32,17.1-65.8,50-22.9,22.3-34.8,38.4-48.1,64.6-4.93,9.8-5.46,12.4-3.01,14.8,2.21,2.21,5.26,1.96,11-0.9zm-923-0.146c11.6-6.31,47.7-35.3,64.1-51.6,14.1-13.9,32.7-37.2,43.2-54,6.89-11.1,7.44-18.2,1.65-21.2-8.54-4.42-13.2-1.41-54.5,35.1-13.2,11.7-26.7,24.5-30.1,28.5-14.6,17.5-25.1,33.6-32.9,50.1-5.65,12-6.34,14.7-4.1,16.3,2.1,1.54,5.54,0.669,12.6-3.18zm-75.9,128c-4.91-4.47-9.35-18.6-10.6-33.7-1.14-13.8-1.47-14.1-11.3-9.11-12.3,6.22-60,24.2-83.4,31.5-29.7,9.22-45.3,11.9-69.3,12-19.4,0.069-28.5-0.886-52.5-5.53-50-9.67-74.1-26.3-86.6-59.7-5.26-14-6.74-22.8-6.76-39.7-0.012-17.3,1.19-23.5,7.15-37.1,2.15-4.9,4.64-11.4,5.54-14.5,1.73-5.96,10.5-19.8,21.1-33.3,7.95-10.1,28.5-30.2,39.2-38.3,36.8-27.8,80.4-47.8,121-55.4,9.1-1.71,15.4-2.18,29.6-2.21,33.5-0.067,58.7,6.53,66.5,17.4,10.3,14.4,8.68,53.7-3.46,86.5-7.96,21.5-24.1,50.9-31,56.3-4.22,3.32-9.93,4.51-22.1,4.6-10.6,0.079-11.2-0.041-14.6-2.64-1.97-1.5-4.59-4.81-5.82-7.36-1.98-4.09-2.17-5.65-1.66-13.3,1.11-16.4,8.88-40.2,18.5-56.4,2.61-4.42,8.38-11.9,12.8-16.6,11.5-12.2,12.4-14.5,7.77-20.1-13-15.4-61.5-15.9-100-1.05-29.9,11.5-62.7,43.7-74.7,73.2-7.67,18.9-14.1,48.6-13.3,61.9,0.677,11.7,6.9,23.8,20,39.1,12.9,15,27.4,24.8,46.5,31.6,7.71,2.73,7.96,2.75,33.3,2.7,21.9-0.039,27.3-0.363,38.3-2.31,22.3-3.94,38.8-9.56,72.2-24.6,7.44-3.34,25.1-14,32.7-19.8,8.37-6.34,11.8-11.1,16.9-23.5,5.6-13.5,23.4-48.5,31.1-61.4,9.85-16.4,18.4-26.7,39.7-47.9,33.9-33.8,71.6-61.3,103-75,8.05-3.53,10.6-4.2,16.2-4.22,13.8-0.048,25.7,4.04,30,10.3,7.11,14.1-6.24,24-6.85,34,0,2.88-12.6,21.1-24.6,35.5-26.4,31.7-63.7,66.5-110,103-28.3,22.2-31.4,26.2-37,48.1-3.69,14.3-3.75,21.6-0.167,22.1,6.27,0.889,17.8-9.78,38.4-35.5,25.7-32,36.5-39.2,55.2-36.9,7.74,0.967,10.2,3.46,17.5,17.5,9.83,18.9,16.3,24.8,28.5,25.8,12,0.945,24.3-3.17,37.4-12.5,7.3-5.19,50.5-39.7,64.6-51.7,12.7-10.7,20.4-14.4,32.7-15.5,6.88-0.513,18.8-2.26,18.8,4.93,0,4.49-2.68,12-9.41,26.4-10.2,21.8-15.6,39.9-15.6,52.3-0.01,8.48,1.23,11.7,5.05,13.3,9.52,3.94,33.1-11.8,73.9-49.5,14.5-13.4,15.8-14,30-14,11.5,0.29,17.9-1.3,20.9,7.74,1.13,3.42,2.99,10.9,4.13,16.6,3.34,16.8,6.08,20.1,16.6,20.1,14.1,0.025,49.3-20.2,70.2-40.4,8.35-8.07,10.6-11.4,12.7-18.5,1.65-5.55,3.28-7.04,13.2-12,16-8.06,30.5-10.6,43.6-7.71,12.5,2.79,37.6,16.1,44.9,23.9,1.66,1.77,4.42,6.14,6.12,9.71,2.76,5.78,3.1,7.5,3.1,15.5,0.0004,11.4-1.76,17.3-10,33.8-6.76,13.5-7.35,15.6-4.91,17.7,1.22,1.02,2.41,0.918,6.25-0.516,7.62-2.85,33.2-16.1,39.7-20.5,15-10.3,20-13.3,34.5-21,19.7-10.5,54.4-27,77-36.7,42-18,69-23.5,77.4-15.8,4.94,4.58,2.77,17.4-4.03,23.7-3.69,3.44-10.5,6.81-22.4,11.1-13.9,5.03-28.7,11.7-54,24.4-32.4,16.2-36.1,19.1-37.6,29-2.92,19.5,20.7,27.1,55.7,18,35.4-9.2,80.6-31,99.7-48.2,5.46-4.91,6.96-7.61,17.1-30.7,10.8-24.6,25.5-49.9,41.5-71.3,10.3-13.8,36.4-40.4,52.9-54.1,28.8-23.8,64.6-45.7,81.6-50,9.64-2.44,21.7-1.61,29.8,2.06,8.17,3.69,10.4,6.75,10.3,14.4-0.096,20-24.1,55.3-66,97.2-23.3,23.3-35.7,34.2-68.2,60.1-39.9,31.9-44.7,38.6-49,69-1.6,11.3-0.998,12.1,6.29,8.22,7.13-3.8,20.6-17.5,35.3-35.9,14.4-18.1,24.4-28.2,30.7-31.3,6.85-3.34,20.4-6.54,25.1-5.91,5.92,0.793,10.1,5.46,16.2,18.2,9.86,20.5,16.3,25.9,31,25.9,4.42,0.01,11.8-0.19,16.3-0.446,9.25-0.517,9.73-0.238,14.2,8.25,4.23,7.98,1.91,11.8-10.5,17.3-9.08,4.02-16.8,5.4-34.1,6.11-26.8,1.1-41.5-1.87-53.3-10.9-8.59-6.51-11.1-7.37-15.4-5.33-1.83,0.87-8.9,6.79-15.7,13.2-28.2,26.4-40.6,35.1-55.6,39.1-9.29,2.47-26.7,1.15-30.7-2.33-4.48-3.94-10.9-25.5-11.2-37.3-0.146-7.22-0.434-8.54-1.93-8.82-0.966-0.186-6.37,2.12-12,5.13s-16.7,7.99-24.5,11.1c-7.84,3.08-20.4,8.48-28,12-29,13.5-58.4,19.6-88.2,18.3-14.7-0.628-20.6-2.41-39.1-11.8-15.1-7.66-17.7-10.4-19.3-20-1.02-6.13-1.58-7.46-3.23-7.7-1.1-0.159-6.26,1.7-11.5,4.14-11.2,5.23-43.6,18.1-56.7,22.6-24.7,8.4-42.8,9.24-48.3,2.24-1.41-1.79-1.93-4.04-1.93-8.32,0-5.22,0.365-6.28,3.32-9.62,10.6-12,20.9-35.7,22.2-51.3,0.576-6.72,0.392-7.97-1.77-12-1.33-2.48-4.33-5.85-6.67-7.5-8.24-5.8-15-3.62-42.1,13.6-7.98,5.06-20.6,13.1-28,17.8-33.5,21.3-68.8,35.2-89.4,35.1-14.9-0.053-32-9.11-39.8-21.1-1.78-2.74-4.22-5.24-5.43-5.54-3.28-0.823-7.9,1.96-29.9,17.9-30.5,22.2-39.6,26.7-57.7,28.9-22.1,2.59-36.4-3.49-42.5-18.1-0.782-1.86-2.51-9.35-3.83-16.7-1.32-7.3-2.91-14.2-3.53-15.4-2.2-4.11-6.47-2.77-20,6.25-6.9,4.59-15.5,9.97-19,11.9-8.47,4.68-22.5,9.29-32.3,10.6-14.8,2.02-46.7,0.742-52-2.09-1.19-0.637-5.88-4.46-10.4-8.5-4.58-4.07-9.17-7.34-10.3-7.34-3.97,0-9.6,3.92-23,16-25.1,22.7-37.1,31.2-51.3,36.1-9.5,3.3-26.8,4.2-33.6-1.45zm-1550-172c-12.3-2.1-16.8-11.5-11.6-22.6,3.88-7.5,19.8-18.6,38.7-27.1,11.3-5.05,18.8-6.41,28.5-5.21,14,1.74,16.9,6.91,8.08,24.4-6.79,13.5-14.1,18.7-25.8,24.3-13.7,6.53-24.8,8.32-37.8,6.11zm-171,42.2c11.4-7.27,44.5-45.9,54.2-63.3,4.27-7.64,9.26-22.1,10.2-29.6,0.578-4.44,0.379-5.46-1.41-7.25-1.15-1.15-3.17-2.08-4.5-2.08-4.19,0-17.7,9.95-29.1,21.5-8.61,8.7-12.8,13.9-19.1,24.1-18.4,29.4-26.3,44.9-26.4,51.7-0.057,7.89,7.65,10.3,16,4.91zm-184,1.04c15.6-8.38,50.4-49.8,60.7-72.3,3.76-8.22,6.61-18.6,6.61-24.1,0-14.3-20.6-4.56-39.9,18.8-8.08,9.76-26.8,40.1-35.4,57.3-5.46,10.9-6.61,17.1-3.81,20.5,1.78,2.15,7.67,2.08,11.8-0.138zm1300,24.9c8.55-4.08,18.9-12.3,22.6-17.8,2.29-3.46,3.03-5.72,3.03-9.25,0-7.44-4.81-10.2-14-7.99-9.66,2.32-24.1,14.1-30.1,24.5-3.67,6.39-3.71,9.71-0.143,12.5,3.61,2.86,9.9,2.2,18.6-1.95zm-540,99.7c-2.63-2.1-5.13-10.3-4.59-15.1,0.28-2.49,3.78-11.3,8.22-20.8,14.1-30,17.9-39.1,18-43.9,0.093-4.33-0.01-4.49-2.7-4.3-4.77,0.332-55.9,30.3-72.4,42.5-7.45,5.48-30.3,16.8-39.6,19.7-11.4,3.5-40.1,2.46-48.4-1.76-4.72-2.41-12.4-10.5-15.2-16-1.15-2.26-2.57-6.34-3.16-9.06-1.79-8.36-0.318-8.83-35.4,11.4-35.2,20.3-50.2,27.2-69.5,32.2-20.5,5.25-37.6,1.96-42.4-8.17-1.44-3.03-1.63-5.11-1.05-11.6,0.613-6.93,0.489-7.97-1.02-8.55-1.03-0.396-6.36,1.27-13.4,4.16-25.6,10.6-29,11.7-39.1,12.2-11.2,0.616-30.8-1.11-37.2-3.27-6.39-2.18-11.1-6.45-19.2-17.4-3.88-5.27-9.82-12.4-13.2-15.7-10.9-11-16.9-10.8-35,1.22-24.5,16.2-45.7,27.7-58.1,31.3-16.8,5.06-54.5,5.36-72.8,0.596-15.2-3.97-23-10-28.7-22.3-5.95-12.8-6.29-13.4-8.07-14.5-2.35-1.47-5.69,0.135-26.4,12.6-40.6,24.6-53.3,28.5-88,27.4-20-0.632-30.3-2.5-40-7.21-9.57-4.66-15.7-11.2-21.4-22.7-5.81-11.8-6.53-11.9-20.3-5.17l-9.74,4.79c-5.16-3.95-11.8-10.2-12-16.4,0-3.2,0.685-4.43,4.38-7.83,2.41-2.22,7.89-5.96,12.2-8.32,13.3-7.3,17.4-12.2,17.4-20.8,0-12.8,11.3-46.8,23.9-72,7.52-15,14.9-26.5,28.5-44.6,42.8-57,66.9-75.6,92.7-71.5,20.8,3.22,24.9,9.13,21.6,31-4.74,31.4-23.6,65.6-58.3,106-9.71,11.3-32.9,35.1-55.1,56.5-6.19,5.97-11.2,11.2-11.2,11.6,0,0.435,1.53,4.16,3.41,8.27,6.04,13.3,15.6,21,29.4,23.7,9.17,1.8,32.6,0.703,42.7-2.01,10.6-2.84,24.7-9.8,31.5-15.6,6.61-5.6,16.7-12.3,23.3-15.4,6.4-3.04,8.22-6.28,9.04-16.1,1.31-15.7,8.81-39.8,19.1-61.4,20.5-43.1,64.7-99.7,92.3-118,10.4-6.99,14-8.26,23.2-8.24,15,0.033,27.3,3.4,30.5,8.38,2.56,3.91,2.96,13.9,1.02,25.7-5.09,30.9-21.3,60.8-53,97.9-4.95,5.78-22.8,24.5-39.8,41.6-16.9,17.1-30.8,31.6-30.8,32.2,0,0.626,1.61,4.53,3.58,8.68,8.13,17.1,21.4,24.1,45.4,23.8,22.3-0.226,36.2-4.67,56.1-18,5.71-3.81,19.2-12.3,29.9-18.8,10.7-6.52,23.2-14.3,27.8-17.2,11.3-7.26,14.2-8.32,22.8-8.32,14.1,0,21.4,2.91,26.6,10.5,1.47,2.19,5.01,10.7,7.86,19,6.43,18.6,10.9,27.4,15.3,30,5,2.98,16.2,2.56,25.7-0.974,10.6-3.92,24.6-11.1,30.5-15.5,2.75-2.09,11.5-6.97,19.5-10.9,7.98-3.88,17.6-9.17,21.5-11.8,12.5-8.45,32.4-19.5,63-34.9,48.2-24.3,61.8-29.4,81.5-30.2,12.9-0.511,15.7,0.31,17.3,4.96,1.43,4.3-0.043,9.68-3.6,13.2-1.74,1.71-15.8,10.5-31.2,19.5-15.4,9.04-36.1,21.9-46,28.6-9.9,6.66-24,15.8-31.4,20.4-15.3,9.51-20.1,13.4-20.1,16.3,0,1.78,0.476,1.96,3.92,1.5,5.74-0.769,38.9-17.9,67.8-35,17.8-10.5,37.4-14.8,46.8-10.2,4.7,2.29,5.21,3.87,5.38,16.6,0.225,16.5,5.75,27.3,15.2,29.9,5.34,1.44,11.7-0.605,19.1-6.13,2.96-2.22,6.73-4.61,8.38-5.31s13.6-8.39,26.5-17.1c84.6-57,88.6-59.4,99.9-61.5,2.96-0.547,9.07-0.994,13.6-0.994,23,0,29.6,9.7,21.3,31.5-4.66,12.3-14,31.4-19.1,39.4-9.51,14.7-5.59,13.7,24.4-6.15,32.7-21.7,46.1-28.2,64.3-31.4,23.8-4.14,36.3,2.25,48.2,24.6,8.86,16.7,15.2,23,23.2,23,5.48,0,8.74-1.31,14.8-5.98,8.37-6.44,17.9-11.8,45-25.5,85.7-43.3,127-56.1,140-43.3,2.71,2.71,2.9,3.36,2.35,7.99-1.44,12.1-8.27,17.9-30,25.5-20.1,6.99-66.3,28.7-79.5,37.4-8.76,5.75-13.3,15.3-11.2,23.2,1.39,5.02,7.63,10.3,14.7,12.4,13.3,3.99,31.4,1.65,59.1-7.6,27.3-9.11,44-16.9,59.7-27.9,18.9-13.1,23.5-18.5,28.3-33.3,6.77-20.6,38.1-52.8,62.6-64.5,11.2-5.35,18.1-6.68,32-6.19,14.2,0.501,19,2.18,24.8,8.69,4.68,5.2,5.71,7.8,5.7,14.4-0.03,15.8-16.7,34.5-52.2,58.6-15.1,10.2-20.8,15.5-20.8,19.3,0,4.26,5.26,9.21,11.9,11.2,13.4,3.99,27.3,3.1,53.3-3.43,8.64-2.17,15.9-3.94,16.2-3.94,1.47,0,8.93,7.82,10.6,11.1,2.92,5.73,2.51,7.28-2.84,10.7-12.4,7.95-33.1,15.8-52.1,19.9-10.8,2.28-15.1,2.67-30.1,2.73-15.7,0.055-18.2-0.17-24.1-2.22-9.61-3.32-14.4-6.78-23.9-17.1-8.03-8.76-12.2-12.1-15.2-12.1-0.73,0-3.7,1.78-6.6,3.96-6.71,5.04-35.3,19.4-44,22.1-3.65,1.13-12.7,4.93-20.1,8.46-15.9,7.55-25.5,10.9-40.5,14.1-15.8,3.34-31.8,4.78-46.3,4.17-15-0.63-19.5-1.86-35.7-9.74-18-8.8-23.5-14.4-23.5-23.9,0-4.96-2.26-7.5-5.89-6.61-1.43,0.351-7.2,2.84-12.8,5.53-12.7,6.1-19.9,8.22-27.8,8.22-13.2,0-22.8-5.55-42.4-24.6-15.6-15.1-18.7-17-27.1-16.4-9.93,0.719-43.5,18.3-63.5,33.3-16.3,12.3-40.9,28.1-47.2,30.5-9.87,3.69-29.3,5.35-32.5,2.77zm-964-140c46.1-4.06,59.5-6.09,63.4-9.63,3.61-3.27,4.29-8.79,4.07-32.8-0.307-33.4-1.94-38.3-16.5-50-15.3-12.3-27-16.3-37.8-13.2-8.81,2.6-14.4,7.7-23.9,21.8-15.1,19.7-27.3,44-42,61.4-5.62,6.54-10,14.5-10,18.2,0,1.31,1.32,3.7,2.92,5.3,3.84,3.84,3.65,3.85,59.9-1.1zm-161,132c-4.02-2.96,0.446-18.9,14.8-52.9,11.2-26.4,11.9-30.5,5.58-31.8-4.99-1.1-6.16-4.14-6.27-16.3-0.076-8.56,0.281-11.5,1.76-14.5,2.65-5.42,7.85-9.27,16.5-12.2,12.7-4.35,19.7-8.29,24.5-13.7,5.9-6.74,13.9-20.5,29.4-50.3,17.6-33.9,25.6-47.2,34.6-57.3,6.5-7.32,7.27-9.94,4.67-15.8l-2.14-4.84,3.94-3.68c3.7-3.45,11.8-6.82,16.4-6.82,2.61,0,12.4-5.12,20.1-10.5,8.48-5.93,25.9-14.5,37.3-18.4,18.7-6.4,30.5-2.58,27.4,8.92-0.568,2.11-3.72,7.4-7.01,11.8-3.29,4.36-5.98,8.85-5.98,9.99,0,2.29,0.444,2.49,24,10.7,16,5.58,22.4,8.7,24.4,11.8,2.39,3.68,6.29,18.6,7.62,29.1,1.01,8.02,0.995,11.5-0.077,18.4-1.1,7.06-1.1,9.44,0.016,14.1,0.735,3.09,1.6,13.3,1.93,22.7,0.652,18.8,0.773,19.2,7.26,22.5,6.16,3.14,6.52,10.5,0.671,13.7-1.7,0.926-4.38,2.74-5.96,4.02-2.76,2.24-2.87,2.68-2.87,10.9,0,14.4-4.78,42.5-9.91,58.1-1.73,5.28-3.08,12-3.46,17.4-1.64,22.6-15,37.1-31.7,34.3l-4.11-0.695,0.861-47.6c0.474-26.2,0.816-49.8,0.762-52.4-0.151-7.17-1.44-8.13-9.86-7.34-13.4,1.25-40.2,5.7-69.6,11.6-52.4,10.5-58.4,12.3-64.8,19.5-9.41,10.8-32.5,51.5-35.7,63-2.65,9.46-10,20.5-15,22.5-2.02,0.818-2.02,0.834-0.055,0.966,2,0.134,2,0.134,0,0.993-2.45,1.05-28.6,1.26-30,0.235z" fill="#5e786e"/>
</svg>
